<svg version="1.1" id="Layer_1" xmlns="http://www.w3.org/2000/svg" xmlns:xlink="http://www.w3.org/1999/xlink" x="0px" y="0px" width="100%" viewBox="0 0 512 512" enable-background="new 0 0 512 512" xml:space="preserve">
  <path fill="#FFF" opacity="1.000000" stroke="none" d="
M351.000000,1.000000 
	C404.971191,1.000000 458.942383,1.000000 512.956787,1.000000 
	C512.956787,171.546783 512.956787,342.093597 512.956787,513.000000 
	C464.646362,513.000000 416.291840,513.000000 367.216553,512.655212 
	C367.333984,509.968719 368.795135,507.653442 368.895752,505.280457 
	C369.222687,497.570435 369.051575,489.839325 369.496582,482.076660 
	C372.008881,481.697327 374.099487,481.373718 376.184204,481.015442 
	C394.978058,477.785614 407.942017,462.781128 408.776520,445.130249 
	C409.750000,424.539612 408.906921,403.863129 408.914734,382.744751 
	C408.983795,349.644897 409.011200,317.024109 408.989319,284.403351 
	C408.973572,260.939545 408.892120,237.475784 408.912781,213.547577 
	C408.991028,194.132874 409.044037,175.182358 408.956268,156.232498 
	C408.941223,152.983383 408.612946,149.676178 407.939575,146.499619 
	C404.351013,129.570953 387.413513,114.909309 369.537537,115.945984 
	C364.073029,116.262871 358.571411,115.939499 353.056091,115.449326 
	C352.962646,104.356041 352.899933,93.722794 352.897156,82.618546 
	C352.916504,66.054604 352.875946,49.961643 352.910217,33.413681 
	C352.992554,30.459442 353.169861,27.946978 352.976379,25.463398 
	C352.341003,17.307312 354.816498,8.895350 351.000000,1.000000 
z"/>
  <path fill="#fff" opacity="1.000000" stroke="none" d="
M147.000000,513.000000 
	C98.359306,513.000000 49.718613,513.000000 1.038960,513.000000 
	C1.038960,342.450409 1.038960,171.900787 1.038960,1.000000 
	C54.687050,1.000000 108.374870,1.000000 162.820007,1.322654 
	C162.718796,3.483832 161.164337,5.305799 161.120132,7.163702 
	C160.909393,16.022160 161.108963,24.890377 161.102753,34.241405 
	C161.082855,50.875950 161.122787,67.024216 161.086578,83.624649 
	C160.989670,94.358261 160.968903,104.639717 160.486313,114.956673 
	C153.945694,115.327782 147.870026,115.740868 141.787567,115.984734 
	C122.068863,116.775337 106.240982,133.041901 105.259720,151.878174 
	C104.181168,172.582062 105.112923,193.390671 105.108711,214.609192 
	C105.032211,241.055679 104.987335,267.046631 105.006866,293.037537 
	C105.029404,323.024658 105.108765,353.011749 105.086990,383.460327 
	C105.059311,394.616791 105.108093,405.311768 105.085327,416.469116 
	C105.003540,425.904724 104.932281,434.878723 105.036461,443.850677 
	C105.056412,445.568970 105.767029,447.279297 106.092087,449.395203 
	C106.032639,450.627319 105.816193,451.537598 106.080345,452.275940 
	C112.624107,470.567413 124.697296,480.421417 144.970901,482.559082 
	C145.909821,492.997528 142.930878,503.234802 147.000000,513.000000 
z"/>
  <path fill="#DC4655" opacity="1.000000" stroke="none" d="
M161.162567,33.755127 
	C161.108963,24.890377 160.909393,16.022160 161.120132,7.163702 
	C161.164337,5.305799 162.718796,3.483832 163.288666,1.322654 
	C214.687561,1.000000 266.375122,1.000000 318.729553,1.304311 
	C320.273071,4.176895 321.812592,6.720742 321.908264,9.317791 
	C322.267517,19.068008 322.155579,28.835588 322.074890,38.893169 
	C315.842651,47.803352 315.944824,68.756386 322.108215,78.816589 
	C322.095856,91.505150 322.095490,103.676338 321.618530,115.888016 
	C305.448273,115.953133 289.754578,115.977760 274.136749,115.539139 
	C274.235413,90.439476 274.258240,65.803078 274.724670,41.109383 
	C278.994080,41.032726 282.822052,41.087662 286.645111,40.975586 
	C291.668793,40.828327 294.930481,37.856285 294.954224,33.571041 
	C294.977905,29.291956 291.718445,26.072571 286.741333,26.049061 
	C266.946045,25.955551 247.149841,25.957598 227.354523,26.045788 
	C222.302841,26.068291 219.079086,29.157112 219.033112,33.450840 
	C218.985306,37.915943 222.334625,40.855732 227.709030,40.989025 
	C231.697678,41.087944 235.688263,41.108921 239.677292,41.622784 
	C239.756180,66.722870 239.835754,91.364799 239.452255,115.988907 
	C214.896530,115.980347 190.803802,116.014145 166.711334,115.952148 
	C164.789398,115.947212 162.869156,115.280388 160.948151,114.921158 
	C160.968903,104.639717 160.989670,94.358261 161.542404,83.666443 
	C168.053528,83.264565 174.040298,83.468788 180.010086,83.236320 
	C189.291367,82.874901 195.838058,76.229645 196.145721,66.974464 
	C196.327759,61.498856 196.299622,56.009975 196.170395,50.531673 
	C195.937225,40.646832 189.521896,34.032864 179.591049,33.667461 
	C173.457596,33.441784 167.306015,33.709122 161.162567,33.755127 
z"/>
  <path fill="#DC4655" opacity="1.000000" stroke="none" d="
M147.468658,513.000000 
	C142.930878,503.234802 145.909821,492.997528 145.330475,482.347839 
	C148.133972,481.462830 150.598846,481.067902 153.063950,481.066467 
	C212.760498,481.032043 272.457062,481.037415 332.153625,481.047913 
	C334.479065,481.048340 336.804535,481.170868 339.099731,481.689514 
	C339.035095,488.471375 338.801941,494.807465 339.032715,501.126617 
	C339.200012,505.707489 338.276825,509.696136 335.000000,513.000000 
	C272.645782,513.000000 210.291550,513.000000 147.468658,513.000000 
z"/>
  <path fill="#D8303F" opacity="1.000000" stroke="none" d="
M322.220184,38.596661 
	C322.155579,28.835588 322.267517,19.068008 321.908264,9.317791 
	C321.812592,6.720742 320.273071,4.176895 319.198242,1.304311 
	C329.354218,1.000000 339.708466,1.000000 350.531342,1.000000 
	C354.816498,8.895350 352.341003,17.307312 352.976379,25.463398 
	C353.169861,27.946978 352.992554,30.459442 352.458191,33.335747 
	C347.504089,33.665150 343.071503,33.738007 338.650940,33.540630 
	C332.537476,33.267670 326.893768,34.296894 322.220184,38.596661 
z"/>
  <path fill="#D82E3D" opacity="1.000000" stroke="none" d="
M335.468658,513.000000 
	C338.276825,509.696136 339.200012,505.707489 339.032715,501.126617 
	C338.801941,494.807465 339.035095,488.471375 339.490509,481.661224 
	C342.220856,481.355743 344.530243,481.531555 347.315125,481.765717 
	C354.884491,481.921478 361.978363,482.018890 369.072205,482.116333 
	C369.051575,489.839325 369.222687,497.570435 368.895752,505.280457 
	C368.795135,507.653442 367.333984,509.968719 366.747925,512.655212 
	C356.645782,513.000000 346.291534,513.000000 335.468658,513.000000 
z"/>
  <path fill="#DC4655" opacity="1.000000" stroke="none" d="
M353.086792,115.909348 
	C358.571411,115.939499 364.073029,116.262871 369.537537,115.945984 
	C387.413513,114.909309 404.351013,129.570953 407.939575,146.499619 
	C408.612946,149.676178 408.941223,152.983383 408.956268,156.232498 
	C409.044037,175.182358 408.991028,194.132874 408.454590,213.543884 
	C398.258270,214.057938 388.592957,214.111252 378.945984,214.105988 
	C378.964294,214.047440 378.998840,213.929672 378.988556,213.466095 
	C378.969788,204.675903 378.980560,196.349197 378.946655,188.022690 
	C378.919739,181.416153 378.559418,181.064651 371.763184,181.049149 
	C361.604645,181.025986 351.446014,181.043198 341.287445,181.042267 
	C316.640411,181.040009 291.993378,181.025314 267.346344,181.042023 
	C260.172882,181.046875 254.710785,178.223923 251.834534,171.461533 
	C247.071228,160.262436 254.597107,149.000504 266.903534,148.978577 
	C301.542542,148.916870 336.181671,148.960464 370.820770,148.934784 
	C372.894714,148.933258 374.968445,148.688354 377.617859,148.520157 
	C377.046631,146.089264 376.837860,144.280304 376.200256,142.637787 
	C372.249847,132.461136 365.609314,124.684120 355.689056,119.828056 
	C353.645020,118.827477 351.787628,117.445610 350.248596,116.185669 
	C351.464233,116.057686 352.275513,115.983521 353.086792,115.909348 
z"/>
  <path fill="#FFC369" opacity="1.000000" stroke="none" d="
M378.927673,214.164551 
	C388.592957,214.111252 398.258270,214.057938 408.381775,214.008316 
	C408.892120,237.475784 408.973572,260.939545 408.989319,284.403351 
	C409.011200,317.024109 408.983795,349.644897 408.459534,382.781982 
	C398.310852,383.448578 388.680054,383.598846 379.034790,383.548218 
	C379.020294,383.347351 378.975769,382.946136 378.971252,382.480865 
	C378.941528,366.216217 378.916351,350.416870 378.931030,334.251953 
	C382.150879,325.119720 381.784760,316.473907 378.268677,307.578918 
	C378.268280,298.767334 378.085632,290.318481 378.118896,281.582153 
	C379.238495,278.788788 380.992157,276.234528 380.852844,273.788025 
	C380.626007,269.803497 379.162384,265.889404 378.376984,261.570984 
	C378.664795,245.519089 378.796234,229.841812 378.927673,214.164551 
z"/>
  <path fill="#DC4655" opacity="1.000000" stroke="none" d="
M379.049316,383.749084 
	C388.680054,383.598846 398.310852,383.448578 408.396820,383.261108 
	C408.906921,403.863129 409.750000,424.539612 408.776520,445.130249 
	C407.942017,462.781128 394.978058,477.785614 376.184204,481.015442 
	C374.099487,481.373718 372.008881,481.697327 369.496582,482.076660 
	C361.978363,482.018890 354.884491,481.921478 347.517761,481.501678 
	C348.730255,480.490387 350.176544,479.695679 351.707428,479.130005 
	C360.745605,475.790588 367.714020,470.080383 372.851013,461.846954 
	C377.841675,453.847931 378.686005,444.952087 378.860687,436.020294 
	C379.201355,418.601990 379.016510,401.173401 379.049316,383.749084 
z"/>
  <path fill="#BED8FB" opacity="1.000000" stroke="none" d="
M322.074890,38.893169 
	C326.893768,34.296894 332.537476,33.267670 338.650940,33.540630 
	C343.071503,33.738007 347.504089,33.665150 352.383362,33.790749 
	C352.875946,49.961643 352.916504,66.054604 352.442871,82.681847 
	C347.486115,83.252472 343.034271,83.120506 338.603271,83.365829 
	C332.436432,83.707260 326.834167,82.531242 322.120270,78.299217 
	C315.944824,68.756386 315.842651,47.803352 322.074890,38.893169 
z"/>
  <path fill="#D8303F" opacity="1.000000" stroke="none" d="
M322.108215,78.816589 
	C326.834167,82.531242 332.436432,83.707260 338.603271,83.365829 
	C343.034271,83.120506 347.486115,83.252472 352.382935,83.152832 
	C352.899933,93.722794 352.962646,104.356041 353.056091,115.449326 
	C352.275513,115.983521 351.464233,116.057686 349.794769,116.160721 
	C339.989441,116.075562 331.042297,115.961540 322.095154,115.847519 
	C322.095490,103.676338 322.095856,91.505150 322.108215,78.816589 
z"/>
  <path fill="#FFE07D" opacity="1.000000" stroke="none" d="
M378.891174,334.617493 
	C378.916351,350.416870 378.941528,366.216217 378.508789,382.541077 
	C376.718750,383.097015 375.386627,383.154083 374.054535,383.154144 
	C286.088593,383.158234 198.122681,383.158630 110.156746,383.151031 
	C108.492310,383.150879 106.827888,383.051758 105.163460,382.998840 
	C105.108765,353.011749 105.029404,323.024658 105.006866,293.037537 
	C104.987335,267.046631 105.032211,241.055679 105.565971,214.571472 
	C109.081932,214.052475 112.080528,214.005112 115.079147,214.004166 
	C203.052383,213.976501 291.025604,213.953461 378.998840,213.929672 
	C378.998840,213.929672 378.964294,214.047440 378.945984,214.105988 
	C378.796234,229.841812 378.664795,245.519089 378.191254,261.277283 
	C371.215363,249.942795 361.362549,244.374481 348.102631,244.825836 
	C343.442596,244.984451 338.771393,244.787750 334.108276,244.889542 
	C317.338531,245.255554 304.063446,258.747772 304.035736,275.388489 
	C304.008209,291.947479 317.346619,305.609650 334.024017,306.019348 
	C339.186218,306.146179 344.354736,306.000305 349.518188,306.095978 
	C358.893158,306.269684 365.837982,312.703033 366.056732,321.313385 
	C366.282135,330.184906 360.094757,336.907410 350.602692,337.575531 
	C345.298706,337.948853 339.928467,337.932068 334.621338,337.583984 
	C325.854065,337.008942 320.297394,331.507385 319.080566,322.779968 
	C318.256836,316.871918 315.196777,313.880585 310.626770,314.515961 
	C306.046753,315.152740 303.606934,318.955933 304.128601,324.645325 
	C305.414215,338.666199 316.363403,350.268250 330.366638,352.082916 
	C334.969543,352.679413 339.670074,352.486298 344.318726,352.772644 
	C359.527496,353.709412 371.274139,348.109772 378.891174,334.617493 
M150.523087,250.924088 
	C138.665665,259.101593 132.659119,270.290863 132.852432,284.795959 
	C132.990067,295.122345 132.714539,305.456543 132.971786,315.778564 
	C133.489120,336.535492 151.983215,353.596558 172.549057,352.528961 
	C194.474640,351.390778 211.381851,333.010437 209.949509,311.869781 
	C209.611465,306.880402 207.079620,304.104889 202.151077,303.895905 
	C197.162766,303.684418 192.153503,303.698578 187.163177,303.880920 
	C182.464111,304.052612 179.802307,306.726501 179.771286,310.946594 
	C179.737045,315.602600 182.389816,317.940125 186.739166,318.569885 
	C188.989517,318.895721 191.276932,318.965515 193.792923,319.171021 
	C193.620911,320.435394 193.637527,321.271240 193.386078,322.016663 
	C189.960526,332.171844 179.330383,338.711548 168.614441,337.294525 
	C157.222153,335.788055 148.313812,326.725891 148.006516,315.691620 
	C147.700592,304.705597 147.763062,293.702271 147.952789,282.711487 
	C148.155792,270.952972 157.249863,261.095612 168.523468,259.993500 
	C180.878708,258.785706 191.433121,266.177582 194.222946,278.088776 
	C194.713272,280.182251 194.695465,282.392029 195.145493,284.498291 
	C195.979401,288.401154 198.526016,290.739716 202.487564,290.724884 
	C206.463928,290.709991 209.042847,288.322906 209.717361,284.405243 
	C210.048370,282.482635 209.876419,280.404266 209.573395,278.452057 
	C205.180222,250.149094 176.298050,236.368973 150.523087,250.924088 
M284.912018,298.567749 
	C281.299072,283.172150 277.719299,267.768646 274.056335,252.384949 
	C272.655914,246.503357 270.639038,244.933609 264.677673,244.866592 
	C259.348572,244.806686 254.016632,244.939133 248.688904,244.834610 
	C243.936829,244.741394 241.189758,247.042221 240.111374,251.527206 
	C238.827240,256.867920 237.584778,262.218719 236.335083,267.567688 
	C230.692322,291.719818 225.052567,315.872711 219.415970,340.026276 
	C219.189041,340.998657 218.961441,341.974274 218.808487,342.959930 
	C218.063309,347.761749 220.092819,351.230072 224.201767,352.225433 
	C228.305054,353.219421 231.969131,351.087402 233.195572,346.430786 
	C235.272202,338.545990 237.115784,330.595673 238.859619,322.629608 
	C239.471878,319.832794 240.830795,318.756714 243.649796,318.787811 
	C252.476196,318.885254 261.305542,318.903076 270.131195,318.774841 
	C273.188232,318.730438 274.587677,319.905365 275.211823,322.903229 
	C276.670380,329.908325 278.433411,336.849823 280.060120,343.820129 
	C281.609833,350.460571 284.790314,353.293640 289.578827,352.272339 
	C294.438629,351.235840 296.271545,347.249054 294.755249,340.715363 
	C291.556610,326.932526 288.301117,313.162842 284.912018,298.567749 
z"/>
  <path fill="#E6646E" opacity="1.000000" stroke="none" d="
M378.988556,213.466095 
	C291.025604,213.953461 203.052383,213.976501 115.079147,214.004166 
	C112.080528,214.005112 109.081932,214.052475 105.626060,214.115921 
	C105.112923,193.390671 104.181168,172.582062 105.259720,151.878174 
	C106.240982,133.041901 122.068863,116.775337 141.787567,115.984734 
	C147.870026,115.740868 153.945694,115.327782 160.486298,114.956665 
	C162.869156,115.280388 164.789398,115.947212 166.711334,115.952148 
	C190.803802,116.014145 214.896530,115.980347 239.927063,115.974808 
	C251.930267,115.986481 262.995605,115.994431 274.060913,116.002388 
	C289.754578,115.977760 305.448273,115.953133 321.618530,115.888016 
	C331.042297,115.961540 339.989441,116.075562 349.390381,116.214531 
	C351.787628,117.445610 353.645020,118.827477 355.689056,119.828056 
	C365.609314,124.684120 372.249847,132.461136 376.200256,142.637787 
	C376.837860,144.280304 377.046631,146.089264 377.617859,148.520157 
	C374.968445,148.688354 372.894714,148.933258 370.820770,148.934784 
	C336.181671,148.960464 301.542542,148.916870 266.903534,148.978577 
	C254.597107,149.000504 247.071228,160.262436 251.834534,171.461533 
	C254.710785,178.223923 260.172882,181.046875 267.346344,181.042023 
	C291.993378,181.025314 316.640411,181.040009 341.287445,181.042267 
	C351.446014,181.043198 361.604645,181.025986 371.763184,181.049149 
	C378.559418,181.064651 378.919739,181.416153 378.946655,188.022690 
	C378.980560,196.349197 378.969788,204.675903 378.988556,213.466095 
z"/>
  <path fill="#E6646E" opacity="1.000000" stroke="none" d="
M105.086990,383.460327 
	C106.827888,383.051758 108.492310,383.150879 110.156746,383.151031 
	C198.122681,383.158630 286.088593,383.158234 374.054535,383.154144 
	C375.386627,383.154083 376.718750,383.097015 378.513306,383.006348 
	C378.975769,382.946136 379.020294,383.347351 379.034790,383.548218 
	C379.016510,401.173401 379.201355,418.601990 378.860687,436.020294 
	C378.686005,444.952087 377.841675,453.847931 372.851013,461.846954 
	C367.714020,470.080383 360.745605,475.790588 351.707428,479.130005 
	C350.176544,479.695679 348.730255,480.490387 347.042236,481.443329 
	C344.530243,481.531555 342.220856,481.355743 339.520752,481.208191 
	C336.804535,481.170868 334.479065,481.048340 332.153625,481.047913 
	C272.457062,481.037415 212.760498,481.032043 153.063950,481.066467 
	C150.598846,481.067902 148.133972,481.462830 145.309418,481.885681 
	C124.697296,480.421417 112.624107,470.567413 106.080345,452.275940 
	C105.816193,451.537598 106.032639,450.627319 106.550552,449.392090 
	C153.045120,448.982849 199.014359,449.013733 244.983475,448.948883 
	C255.921661,448.933441 263.488617,441.906464 263.466217,432.123688 
	C263.445953,423.272888 254.877884,415.720856 245.061462,415.809692 
	C198.429825,416.231781 151.792313,416.003479 105.156883,416.006744 
	C105.108093,405.311768 105.059311,394.616791 105.086990,383.460327 
z"/>
  <path fill="#DC4655" opacity="1.000000" stroke="none" d="
M105.085327,416.469116 
	C151.792313,416.003479 198.429825,416.231781 245.061462,415.809692 
	C254.877884,415.720856 263.445953,423.272888 263.466217,432.123688 
	C263.488617,441.906464 255.921661,448.933441 244.983475,448.948883 
	C199.014359,449.013733 153.045120,448.982849 106.617477,448.990143 
	C105.767029,447.279297 105.056412,445.568970 105.036461,443.850677 
	C104.932281,434.878723 105.003540,425.904724 105.085327,416.469116 
z"/>
  <path fill="#CBE2FF" opacity="1.000000" stroke="none" d="
M161.102753,34.241409 
	C167.306015,33.709122 173.457596,33.441784 179.591049,33.667461 
	C189.521896,34.032864 195.937225,40.646832 196.170395,50.531673 
	C196.299622,56.009975 196.327759,61.498856 196.145721,66.974464 
	C195.838058,76.229645 189.291367,82.874901 180.010086,83.236320 
	C174.040298,83.468788 168.053528,83.264565 161.618546,83.214279 
	C161.122787,67.024216 161.082855,50.875950 161.102753,34.241409 
z"/>
  <path fill="#CBE2FF" opacity="1.000000" stroke="none" d="
M274.136749,115.539139 
	C262.995605,115.994431 251.930267,115.986481 240.390137,115.992622 
	C239.835754,91.364799 239.756180,66.722870 240.165527,41.553787 
	C251.863327,41.073311 263.072205,41.119991 274.281067,41.166672 
	C274.258240,65.803078 274.235413,90.439476 274.136749,115.539139 
z"/>
  <path fill="#2A4B64" opacity="1.000000" stroke="none" d="
M274.724670,41.109383 
	C263.072205,41.119991 251.863327,41.073311 240.166229,41.095627 
	C235.688263,41.108921 231.697678,41.087944 227.709030,40.989025 
	C222.334625,40.855732 218.985306,37.915943 219.033112,33.450840 
	C219.079086,29.157112 222.302841,26.068291 227.354523,26.045788 
	C247.149841,25.957598 266.946045,25.955551 286.741333,26.049061 
	C291.718445,26.072571 294.977905,29.291956 294.954224,33.571041 
	C294.930481,37.856285 291.668793,40.828327 286.645111,40.975586 
	C282.822052,41.087662 278.994080,41.032726 274.724670,41.109383 
z"/>
  <path fill="#E6666E" opacity="1.000000" stroke="none" d="
M378.931030,334.251953 
	C371.274139,348.109772 359.527496,353.709412 344.318726,352.772644 
	C339.670074,352.486298 334.969543,352.679413 330.366638,352.082916 
	C316.363403,350.268250 305.414215,338.666199 304.128601,324.645325 
	C303.606934,318.955933 306.046753,315.152740 310.626770,314.515961 
	C315.196777,313.880585 318.256836,316.871918 319.080566,322.779968 
	C320.297394,331.507385 325.854065,337.008942 334.621338,337.583984 
	C339.928467,337.932068 345.298706,337.948853 350.602692,337.575531 
	C360.094757,336.907410 366.282135,330.184906 366.056732,321.313385 
	C365.837982,312.703033 358.893158,306.269684 349.518188,306.095978 
	C344.354736,306.000305 339.186218,306.146179 334.024017,306.019348 
	C317.346619,305.609650 304.008209,291.947479 304.035736,275.388489 
	C304.063446,258.747772 317.338531,245.255554 334.108276,244.889542 
	C338.771393,244.787750 343.442596,244.984451 348.102631,244.825836 
	C361.362549,244.374481 371.215363,249.942795 378.034912,261.651917 
	C379.162384,265.889404 380.626007,269.803497 380.852844,273.788025 
	C380.992157,276.234528 379.238495,278.788788 377.751770,281.687469 
	C370.486328,283.801270 367.051270,281.515076 366.095978,274.710907 
	C364.736053,265.024261 359.068665,259.973267 349.355225,259.873749 
	C344.367432,259.822662 339.374908,259.757477 334.390991,259.909790 
	C325.941345,260.168030 319.199036,266.999420 319.076721,275.234528 
	C318.952148,283.616394 325.808868,290.727692 334.451965,291.046661 
	C338.271545,291.187683 342.108765,291.264099 345.922760,291.070160 
	C360.002502,290.354187 370.788452,295.791504 378.086456,307.941711 
	C381.784760,316.473907 382.150879,325.119720 378.931030,334.251953 
z"/>
  <path fill="#FFE07D" opacity="1.000000" stroke="none" d="
M378.268677,307.578918 
	C370.788452,295.791504 360.002502,290.354187 345.922760,291.070160 
	C342.108765,291.264099 338.271545,291.187683 334.451965,291.046661 
	C325.808868,290.727692 318.952148,283.616394 319.076721,275.234528 
	C319.199036,266.999420 325.941345,260.168030 334.390991,259.909790 
	C339.374908,259.757477 344.367432,259.822662 349.355225,259.873749 
	C359.068665,259.973267 364.736053,265.024261 366.095978,274.710907 
	C367.051270,281.515076 370.486328,283.801270 377.535828,281.974976 
	C378.085632,290.318481 378.268280,298.767334 378.268677,307.578918 
z"/>
  <path fill="#E6666E" opacity="1.000000" stroke="none" d="
M150.830658,250.728577 
	C176.298050,236.368973 205.180222,250.149094 209.573395,278.452057 
	C209.876419,280.404266 210.048370,282.482635 209.717361,284.405243 
	C209.042847,288.322906 206.463928,290.709991 202.487564,290.724884 
	C198.526016,290.739716 195.979401,288.401154 195.145493,284.498291 
	C194.695465,282.392029 194.713272,280.182251 194.222946,278.088776 
	C191.433121,266.177582 180.878708,258.785706 168.523468,259.993500 
	C157.249863,261.095612 148.155792,270.952972 147.952789,282.711487 
	C147.763062,293.702271 147.700592,304.705597 148.006516,315.691620 
	C148.313812,326.725891 157.222153,335.788055 168.614441,337.294525 
	C179.330383,338.711548 189.960526,332.171844 193.386078,322.016663 
	C193.637527,321.271240 193.620911,320.435394 193.792923,319.171021 
	C191.276932,318.965515 188.989517,318.895721 186.739166,318.569885 
	C182.389816,317.940125 179.737045,315.602600 179.771286,310.946594 
	C179.802307,306.726501 182.464111,304.052612 187.163177,303.880920 
	C192.153503,303.698578 197.162766,303.684418 202.151077,303.895905 
	C207.079620,304.104889 209.611465,306.880402 209.949509,311.869781 
	C211.381851,333.010437 194.474640,351.390778 172.549057,352.528961 
	C151.983215,353.596558 133.489120,336.535492 132.971786,315.778564 
	C132.714539,305.456543 132.990067,295.122345 132.852432,284.795959 
	C132.659119,270.290863 138.665665,259.101593 150.830658,250.728577 
z"/>
  <path fill="#E6666E" opacity="1.000000" stroke="none" d="
M284.990479,298.977753 
	C288.301117,313.162842 291.556610,326.932526 294.755249,340.715363 
	C296.271545,347.249054 294.438629,351.235840 289.578827,352.272339 
	C284.790314,353.293640 281.609833,350.460571 280.060120,343.820129 
	C278.433411,336.849823 276.670380,329.908325 275.211823,322.903229 
	C274.587677,319.905365 273.188232,318.730438 270.131195,318.774841 
	C261.305542,318.903076 252.476196,318.885254 243.649796,318.787811 
	C240.830795,318.756714 239.471878,319.832794 238.859619,322.629608 
	C237.115784,330.595673 235.272202,338.545990 233.195572,346.430786 
	C231.969131,351.087402 228.305054,353.219421 224.201767,352.225433 
	C220.092819,351.230072 218.063309,347.761749 218.808487,342.959930 
	C218.961441,341.974274 219.189041,340.998657 219.415970,340.026276 
	C225.052567,315.872711 230.692322,291.719818 236.335083,267.567688 
	C237.584778,262.218719 238.827240,256.867920 240.111374,251.527206 
	C241.189758,247.042221 243.936829,244.741394 248.688904,244.834610 
	C254.016632,244.939133 259.348572,244.806686 264.677673,244.866592 
	C270.639038,244.933609 272.655914,246.503357 274.056335,252.384949 
	C277.719299,267.768646 281.299072,283.172150 284.990479,298.977753 
M250.258072,273.753326 
	C248.590164,280.864380 246.931046,287.977509 245.252106,295.085968 
	C243.203339,303.760193 243.196136,303.759338 252.166779,303.761810 
	C258.028320,303.763428 263.889893,303.762115 269.398865,303.762115 
	C269.799713,302.255554 270.012787,301.911072 269.948853,301.629456 
	C266.974060,288.526276 264.043884,275.411743 260.849915,262.361847 
	C260.591156,261.304718 258.478882,260.008453 257.274750,260.054260 
	C255.833847,260.109131 253.630875,261.179321 253.184875,262.352356 
	C251.897644,265.737885 251.327255,269.395996 250.258072,273.753326 
z"/>
  <path fill="#FEDE7D" opacity="1.000000" stroke="none" d="
M250.366714,273.350189 
	C251.327255,269.395996 251.897644,265.737885 253.184875,262.352356 
	C253.630875,261.179321 255.833847,260.109131 257.274750,260.054260 
	C258.478882,260.008453 260.591156,261.304718 260.849915,262.361847 
	C264.043884,275.411743 266.974060,288.526276 269.948853,301.629456 
	C270.012787,301.911072 269.799713,302.255554 269.398865,303.762115 
	C263.889893,303.762115 258.028320,303.763428 252.166779,303.761810 
	C243.196136,303.759338 243.203339,303.760193 245.252106,295.085968 
	C246.931046,287.977509 248.590164,280.864380 250.366714,273.350189 
z"/>
</svg>
